<?xml version="1.0" encoding="UTF-8"?>
<svg id="Layer_1" data-name="Layer 1" xmlns="http://www.w3.org/2000/svg" viewBox="0 0 209.04 112.52">
  <defs>
    <style>
      .cls-1 {
        fill: #fff;
      }
    </style>
  </defs>
  <path class="cls-1" d="M104.52,0C46.79,0,0,49.45,0,110.45l104.52.52,104.52,1.55C209.04,51.52,162.24,0,104.52,0ZM36.01,108.88c-5.86-.03-8.79-.04-14.66-.07-2.28-.01-4.15-1.42-4.15-3.13,2.83-19.85,9.39-39.37,17.62-57.58-4.4,1.55-6.56,2.38-10.79,4.13-6.52,2.71-6.17-1.07-.05-6.66,7.11-6.46,14.04-13.2,20.75-20.08,1.76-1.8,3.6-3.31,5.21-4.25,0,.01,0,.02-.01.03.1-.06.19-.13.29-.19.65-.38.98-.57,1.64-.94,1.55-.87,2.39-.41,1.85.99-10.31,27.12-13.42,55.52-13.66,84.33.03,1.89-1.76,3.43-4.04,3.41ZM153.09,109.94c-31.85-.47-63.69-.79-95.55-.95-10.59-.05-16.21-10.66-8.85-17.55,15.08-14.25,29.93-28.73,44.9-43.09-9.7-8.73-19.41-17.43-29.65-25.54-4.54-3.56,2.08-13.37,9.83-15.98,21.77-5.9,40.27-5.89,62.04.39,7.68,2.73,14.47,12.67,10.08,16.17-10,8.02-19.53,16.57-29.06,25.14,15.05,14.63,29.96,29.42,45.07,44,7.37,7.05,1.77,17.58-8.82,17.42ZM187.69,110.45c-5.86-.09-8.79-.13-14.66-.22-2.28-.03-4.07-1.61-4.04-3.52-.28-29.22-3.58-57.97-14.22-85.4-.56-1.43.26-1.89,1.81-1.01.66.37.99.56,1.64.95.1.06.19.13.29.19,0-.01,0-.02-.01-.03,1.61.96,3.46,2.5,5.23,4.32,6.77,7.01,13.76,13.89,20.92,20.51,6.16,5.72,6.58,9.62.05,6.82-4.24-1.82-6.4-2.68-10.79-4.29,8.18,19.15,14.21,38.05,17.92,58.58,0,1.73-1.87,3.12-4.15,3.08Z"/>
  <path class="cls-1" d="M116.72,33.95c2.55-5.39,3.74-7.99,5.88-12.9,2.47-5.66-3.03-12.98-10.15-13.52-4.98-.38-7.55-.42-12.59-.2-7.22.3-12.56,7.48-9.89,13.23,2.32,5,3.6,7.63,6.28,13.11,3.73,7.6,16.93,7.78,20.46.29Z"/>
  <path class="cls-1" d="M116.11,60.45c-4.35-8.46-17.4-8.56-21.71-.18-4.71,9.16-7.14,13.89-11.9,23.38-3.66,7.31,2.25,15.53,11.06,15.52,9.39-.01,14.11.04,23.49.23,8.81.18,14.71-7.94,11.03-15.33-4.78-9.6-7.23-14.38-11.98-23.63Z"/>
</svg>